<mxfile host="app.diagrams.net" modified="2021-11-15T03:40:10.049Z" agent="5.0 (Windows NT 10.0; Win64; x64) AppleWebKit/537.36 (KHTML, like Gecko) Chrome/95.0.4638.69 Safari/537.36" etag="viGGE_Q8Cjdvssh1dnbF" version="15.7.3" type="github">
  <diagram id="B8IyKvxjue6BVCUxql87" name="Page-1">
    <mxGraphModel dx="813" dy="403" grid="1" gridSize="10" guides="1" tooltips="1" connect="1" arrows="1" fold="1" page="1" pageScale="1" pageWidth="827" pageHeight="1169" math="1" shadow="0">
      <root>
        <mxCell id="0" />
        <mxCell id="1" parent="0" />
        <mxCell id="0bdPtCRiRYGDzQt_RmV7-4" value="" style="edgeStyle=orthogonalEdgeStyle;rounded=0;orthogonalLoop=1;jettySize=auto;html=1;entryX=0.5;entryY=0;entryDx=0;entryDy=0;" edge="1" parent="1" source="0bdPtCRiRYGDzQt_RmV7-2" target="0bdPtCRiRYGDzQt_RmV7-24">
          <mxGeometry relative="1" as="geometry">
            <mxPoint x="620" y="170" as="targetPoint" />
          </mxGeometry>
        </mxCell>
        <mxCell id="0bdPtCRiRYGDzQt_RmV7-23" style="edgeStyle=orthogonalEdgeStyle;rounded=0;orthogonalLoop=1;jettySize=auto;html=1;entryX=0.5;entryY=0;entryDx=0;entryDy=0;fontSize=15;" edge="1" parent="1" source="0bdPtCRiRYGDzQt_RmV7-2" target="0bdPtCRiRYGDzQt_RmV7-17">
          <mxGeometry relative="1" as="geometry" />
        </mxCell>
        <mxCell id="0bdPtCRiRYGDzQt_RmV7-2" value="$$\Delta_{ij}$$" style="ellipse;whiteSpace=wrap;html=1;fillColor=#bac8d3;strokeColor=#23445d;" vertex="1" parent="1">
          <mxGeometry x="340" y="50" width="120" height="80" as="geometry" />
        </mxCell>
        <mxCell id="0bdPtCRiRYGDzQt_RmV7-10" style="rounded=0;orthogonalLoop=1;jettySize=auto;html=1;dashed=1;" edge="1" parent="1" source="0bdPtCRiRYGDzQt_RmV7-8" target="0bdPtCRiRYGDzQt_RmV7-17">
          <mxGeometry relative="1" as="geometry">
            <mxPoint x="143.21137502482884" y="397.8070328411586" as="targetPoint" />
          </mxGeometry>
        </mxCell>
        <mxCell id="0bdPtCRiRYGDzQt_RmV7-8" value="$$&lt;br&gt;(\theta_i,\tau_i) \sim MN(\mu,\Sigma)&amp;nbsp;&lt;br&gt;$$" style="ellipse;whiteSpace=wrap;html=1;fillColor=#dae8fc;strokeColor=#6c8ebf;" vertex="1" parent="1">
          <mxGeometry x="30" y="320" width="150" height="80" as="geometry" />
        </mxCell>
        <mxCell id="0bdPtCRiRYGDzQt_RmV7-12" style="edgeStyle=none;rounded=0;orthogonalLoop=1;jettySize=auto;html=1;dashed=1;entryX=0.592;entryY=1;entryDx=0;entryDy=0;entryPerimeter=0;" edge="1" parent="1" source="0bdPtCRiRYGDzQt_RmV7-11" target="0bdPtCRiRYGDzQt_RmV7-17">
          <mxGeometry relative="1" as="geometry">
            <mxPoint x="199.37581733622346" y="397.3527862278647" as="targetPoint" />
          </mxGeometry>
        </mxCell>
        <mxCell id="0bdPtCRiRYGDzQt_RmV7-11" value="$$a_j,a_j,c_j$$" style="ellipse;whiteSpace=wrap;html=1;fillColor=#dae8fc;strokeColor=#6c8ebf;" vertex="1" parent="1">
          <mxGeometry x="200" y="320" width="150" height="80" as="geometry" />
        </mxCell>
        <mxCell id="0bdPtCRiRYGDzQt_RmV7-13" value="&lt;font style=&quot;font-size: 15px&quot;&gt;1&lt;/font&gt;" style="text;html=1;strokeColor=none;fillColor=none;align=center;verticalAlign=middle;whiteSpace=wrap;rounded=0;strokeWidth=0;" vertex="1" parent="1">
          <mxGeometry x="220" y="60" width="60" height="30" as="geometry" />
        </mxCell>
        <mxCell id="0bdPtCRiRYGDzQt_RmV7-14" value="&lt;font style=&quot;font-size: 15px&quot;&gt;0&lt;/font&gt;" style="text;html=1;strokeColor=none;fillColor=none;align=center;verticalAlign=middle;whiteSpace=wrap;rounded=0;" vertex="1" parent="1">
          <mxGeometry x="530" y="60" width="60" height="30" as="geometry" />
        </mxCell>
        <mxCell id="0bdPtCRiRYGDzQt_RmV7-17" value="$$P(Y_{ij})=c_{j}+\left(1-c_{j}\right) \frac{\exp \left[a_{j}\left(\theta_{i}-b_{j}\right)\right]}{1+\exp \left[a_{j}\left(\theta_{i}-b_{j}\right)\right]}&lt;br&gt;\\&lt;br&gt;log(T_{ij})\sim N(\beta_j-\tau_i,1/\omega^2)&lt;br&gt;$$" style="rounded=1;whiteSpace=wrap;html=1;fillColor=#f8cecc;strokeColor=#b85450;" vertex="1" parent="1">
          <mxGeometry x="30" y="180" width="300" height="90" as="geometry" />
        </mxCell>
        <mxCell id="0bdPtCRiRYGDzQt_RmV7-24" value="$$P(Y_{ij})=d_j&lt;br&gt;\\&lt;br&gt;log(T_{ij})\sim N(\mu_c,\sigma_c^2)&lt;br&gt;$$" style="rounded=1;whiteSpace=wrap;html=1;fillColor=#fad7ac;strokeColor=#b46504;" vertex="1" parent="1">
          <mxGeometry x="500" y="180" width="210" height="90" as="geometry" />
        </mxCell>
      </root>
    </mxGraphModel>
  </diagram>
</mxfile>
